# xmcd CD database file generated by OrangeCD 5.2
#
# Track frame offsets:
#	150
#	16153
#	29981
#	49932
#	68490
#	80820
#	99693
#	115602
#	132103
#	151305
#	168930
#	182067
#	198137
#	215939
#	232359
#
# Disc length: 3322 seconds
#
# Revision: 0
# Processed by: cddbd v1.5.2PL0 Copyright (c) Steve Scherf et al.
# Submitted via: OrangeCD 5.2
#
DISCID=d40cf80f
DTITLE=Gary Allan - Greatest Hits
DYEAR=1900
DGENRE=Country
TTITLE0=A feelin' like that
TTITLE1=Right where I need to be
TTITLE2=Songs about rain
TTITLE3=Smoke rings in the dark
TTITLE4=Her man
TTITLE5=Best I ever had
TTITLE6=Nothing on but the radio
TTITLE7=Man to man
TTITLE8=The one
TTITLE9=Lovin' you against my will
TTITLE10=It would be you
TTITLE11=Man of me
TTITLE12=Tough little boys
TTITLE13=As the crow flies
TTITLE14=Life ain't always beautiful
EXTD=
EXTT0=
EXTT1=
EXTT2=
EXTT3=
EXTT4=
EXTT5=
EXTT6=
EXTT7=
EXTT8=
EXTT9=
EXTT10=
EXTT11=
EXTT12=
EXTT13=
EXTT14=
PLAYORDER=
